<svg width="213" height="185" viewBox="0 0 213 185" fill="none" xmlns="http://www.w3.org/2000/svg">
<path d="M13.0274 63.1101H23.5812L23.0865 78.4034C27.3739 67.4405 35.5092 61.959 47.4921 61.959C48.3716 61.959 49.8008 62.0138 51.7796 62.1234L51.6147 72.9768C49.9657 72.6479 48.8114 72.4834 48.1517 72.4834C39.9066 72.5931 33.5303 75.7723 29.023 82.0212C25.3951 87.0642 23.5812 94.2449 23.5812 103.563V148.457H13.0274V63.1101Z" fill="black"/>
<path d="M77.3763 63.1101V71.6612H63.1946V148.457H51.9812V71.6612H39.6134V63.1101H51.9812V48.8034C51.9812 41.8968 53.4653 36.9086 56.4335 33.839C59.5117 30.7694 64.4588 29.2346 71.2748 29.2346C73.3636 29.2346 75.3974 29.399 77.3763 29.7279V39.1012C75.9471 38.882 74.5179 38.7723 73.0888 38.7723C69.1311 38.7723 66.4926 39.5397 65.1734 41.0746C63.8542 42.4997 63.1946 45.4049 63.1946 49.7901V63.1101H77.3763Z" fill="black"/>
<path d="M136.87 87.7768H125.162C123.183 76.0464 115.982 70.1812 103.559 70.1812C90.1471 70.1812 83.441 75.1146 83.441 84.9812C83.441 91.2301 87.6735 95.3412 96.1386 97.3146L117.246 102.412C130.768 105.592 137.529 112.663 137.529 123.626C137.529 132.506 134.121 139.412 127.305 144.346C121.369 148.621 113.728 150.759 104.384 150.759C91.5213 150.759 82.0119 147.086 75.8555 139.741C73.327 136.672 71.623 134.095 70.7435 132.012C69.864 129.82 69.3693 126.805 69.2594 122.968H81.2973C81.737 129.546 83.7708 134.26 87.3987 137.11C91.0266 139.96 96.8532 141.386 104.878 141.386C111.475 141.386 116.697 139.906 120.544 136.946C124.392 133.986 126.316 129.984 126.316 124.941C126.316 118.363 121.754 114.033 112.629 111.95L91.8511 107.017C78.7688 103.947 72.2276 96.7116 72.2276 85.3101C72.2276 77.7457 75.031 71.7709 80.6377 67.3857C86.3543 63.0005 94.1048 60.8079 103.889 60.8079C114.223 60.8079 122.413 63.6583 128.46 69.359C133.517 74.1827 136.32 80.322 136.87 87.7768Z" fill="black"/>
<path d="M173.46 60.8079C186.102 60.8079 196.052 65.4671 203.307 74.7857C209.684 82.8983 212.872 93.2583 212.872 105.866C212.872 120.227 208.804 131.574 200.669 139.906C193.523 147.141 184.453 150.759 173.46 150.759C160.817 150.759 150.868 146.1 143.612 136.781C137.236 128.669 134.048 118.363 134.048 105.866C134.048 91.3946 138.116 79.9931 146.251 71.6612C153.397 64.4257 162.466 60.8079 173.46 60.8079ZM173.46 70.1812C164.335 70.1812 157.189 73.8538 152.022 81.199C147.515 87.5575 145.261 95.7797 145.261 105.866C145.261 117.377 148.175 126.421 154.001 132.999C158.948 138.59 165.435 141.386 173.46 141.386C182.585 141.386 189.73 137.713 194.897 130.368C199.405 124.009 201.658 115.842 201.658 105.866C201.658 94.3546 198.745 85.3101 192.918 78.7323C187.861 73.0316 181.375 70.1812 173.46 70.1812Z" fill="black"/>
<path d="M132.839 171.296C132.839 176.342 128.737 180.432 123.677 180.432C118.618 180.432 114.516 176.342 114.516 171.296C114.516 166.251 118.618 162.16 123.677 162.16C128.737 162.16 132.839 166.251 132.839 171.296Z" fill="#B6B6B6"/>
<path d="M88.1774 162.16L97.103 179.29H79.2518L88.1774 162.16Z" fill="#B6B6B6"/>
<path d="M75.5806 63.9506H73.2903V66.2346H75.5806V63.9506Z" fill="black"/>
<path d="M80.1613 63.9506H82.4516V66.2346H80.1613V63.9506Z" fill="black"/>
<path d="M82.4516 63.9506H84.7419V66.2346H82.4516V63.9506Z" fill="black"/>
<path d="M80.1613 63.9506H77.871V66.2346H80.1613V63.9506Z" fill="black"/>
<path d="M77.871 63.9506H75.5806V66.2346H77.871V63.9506Z" fill="black"/>
<path d="M60.6935 71.9445H71H81.3064M81.3064 73.0864H71H60.6935H81.3064Z" stroke="black"/>
<path d="M83.3116 66.3293L74.4355 67.3765L73.2903 68.5185M83.3116 66.3293L83.5968 66.2346H73.2903V68.5185L83.3116 66.3293ZM83.3116 66.3293L73.2903 69.6605V68.5185L83.3116 66.3293Z" stroke="black"/>
<path d="M61.8387 62.8087H93.9032L89.3226 70.8025H75.5806L61.8387 62.8087Z" fill="black"/>
<path d="M50.3871 62.8086L52.6774 61.6667V62.8086L51.5323 63.9506L50.3871 62.8086Z" fill="black"/>
<path d="M48.0968 69.6605L50.3871 70.8025L54.9677 73.0864V75.3704H53.8226L52.6774 73.0864H51.5323L48.0968 69.6605Z" fill="black"/>
</svg>
