<svg width="46" height="46" viewBox="0 0 46 46" fill="none" xmlns="http://www.w3.org/2000/svg">
<path d="M29.9128 32.085C29.6334 32.0887 29.3606 32.0008 29.136 31.8347C28.9114 31.6686 28.7474 31.4335 28.6691 31.1654C28.5908 30.8972 28.6026 30.6108 28.7026 30.3499C28.8026 30.0891 28.9853 29.8682 29.2228 29.7211C30.3855 28.9954 31.3404 27.9809 31.9944 26.7764C32.6485 25.5719 32.9794 24.2186 32.955 22.8482C32.9305 21.4778 32.5515 20.1371 31.8549 18.9567C31.1583 17.7764 30.1678 16.7966 28.98 16.1128C28.8273 16.0329 28.6923 15.9229 28.5832 15.7896C28.4741 15.6562 28.3931 15.5021 28.3451 15.3366C28.2971 15.1711 28.283 14.9975 28.3038 14.8265C28.3246 14.6554 28.3798 14.4903 28.466 14.3411C28.5523 14.1919 28.6678 14.0617 28.8057 13.9583C28.9435 13.8549 29.1009 13.7805 29.2683 13.7395C29.4357 13.6985 29.6096 13.6917 29.7797 13.7197C29.9497 13.7477 30.1123 13.8098 30.2578 13.9022C31.8404 14.802 33.1616 16.0982 34.0915 17.6633C35.0214 19.2284 35.5281 21.0085 35.5616 22.8287C35.5951 24.6489 35.1544 26.4465 34.2827 28.0448C33.411 29.6431 32.1384 30.987 30.59 31.9444C30.3815 32.0527 30.1471 32.1013 29.9128 32.085Z" fill="black"/>
<path d="M23 40.8889C22.6628 40.8892 22.3288 40.8227 22.0174 40.6933C21.706 40.5639 21.4233 40.3742 21.1855 40.135L11.6789 30.6667H5.1111C4.43332 30.6667 3.78331 30.3974 3.30405 29.9182C2.82479 29.4389 2.55554 28.7889 2.55554 28.1111V17.8889C2.55554 17.2111 2.82479 16.5611 3.30405 16.0818C3.78331 15.6026 4.43332 15.3333 5.1111 15.3333H11.7811L21.1472 5.865C21.5016 5.49182 21.9604 5.23433 22.4635 5.12623C22.9667 5.01813 23.4908 5.06446 23.9671 5.25916C24.4435 5.45385 24.85 5.78784 25.1334 6.21741C25.4169 6.64697 25.564 7.1521 25.5555 7.66666V38.3333C25.5555 38.84 25.4049 39.3353 25.1228 39.7562C24.8407 40.1771 24.4398 40.5047 23.9711 40.6972C23.663 40.8238 23.3331 40.8889 23 40.8889ZM5.1111 17.8889V28.1111H12.2155C12.5534 28.1057 12.8795 28.2344 13.1228 28.4689L23 38.3333V7.66666L13.225 17.48C13.1066 17.6007 12.9655 17.6968 12.8098 17.7626C12.6541 17.8284 12.4868 17.8626 12.3178 17.8633L5.1111 17.8889Z" fill="black"/>
</svg>
