<svg width="44" height="44" viewBox="0 0 44 44" fill="none" xmlns="http://www.w3.org/2000/svg">
<rect width="44" height="44" fill="#FBFBFB"/>
<path d="M4.41224 7.83445L11.2322 14.6667H4.8889C4.2406 14.6667 3.61884 14.9242 3.16042 15.3826C2.702 15.8411 2.44446 16.4628 2.44446 17.1111V26.8889C2.44446 27.5372 2.702 28.159 3.16042 28.6174C3.61884 29.0758 4.2406 29.3333 4.8889 29.3333H11.1711L20.2278 38.4633C20.4655 38.6834 20.7446 38.8539 21.0489 38.9651C21.3531 39.0763 21.6764 39.126 22 39.1111C22.3186 39.1111 22.6342 39.0489 22.9289 38.9278C23.3772 38.7436 23.7607 38.4303 24.0305 38.0277C24.3004 37.6251 24.4445 37.1514 24.4445 36.6667V27.83L31.6434 35.0289C31.3378 35.2122 31.0445 35.3833 30.7267 35.5422C30.4366 35.6881 30.2163 35.9432 30.1143 36.2515C30.0123 36.5598 30.0369 36.896 30.1828 37.1861C30.3287 37.4762 30.5838 37.6965 30.8921 37.7985C31.2004 37.9005 31.5366 37.8759 31.8267 37.73C32.376 37.4527 32.9105 37.1467 33.4278 36.8133L36.2145 39.6L37.8889 37.8889L6.11113 6.11111L4.41224 7.83445ZM22 36.6667L12.5522 27.17C12.3101 26.9678 11.9992 26.8671 11.6845 26.8889H4.8889V17.1111H11.7822C11.9439 17.1104 12.1039 17.0777 12.2529 17.0148C12.4018 16.9518 12.5368 16.8599 12.65 16.7444L12.9678 16.4267L22 25.4345V36.6667Z" fill="black"/>
<path d="M30.4211 8.17667C32.5514 9.17166 34.4215 10.6479 35.8838 12.489C37.3462 14.33 38.3609 16.4856 38.8479 18.7858C39.335 21.086 39.2811 23.4679 38.6905 25.7437C38.0998 28.0195 36.9886 30.127 35.4445 31.9L37.18 33.6356C39.0029 31.5853 40.322 29.1378 41.0323 26.4879C41.7426 23.838 41.8245 21.0588 41.2714 18.3717C40.7183 15.6846 39.5455 13.1637 37.8464 11.0097C36.1474 8.85573 33.9689 7.12813 31.4845 5.96445C31.3394 5.88929 31.1808 5.84397 31.0179 5.83118C30.855 5.81838 30.6913 5.83837 30.5363 5.88995C30.3812 5.94154 30.2381 6.02367 30.1154 6.13151C29.9927 6.23934 29.8928 6.37068 29.8217 6.51777C29.7507 6.66486 29.7098 6.82471 29.7015 6.98787C29.6933 7.15103 29.7178 7.31419 29.7737 7.4677C29.8296 7.62122 29.9156 7.76197 30.0268 7.88164C30.1381 8.00132 30.2721 8.09748 30.4211 8.16445V8.17667Z" fill="black"/>
<path d="M27.7322 15.4244C28.8826 16.0957 29.8381 17.0551 30.5047 18.2082C31.1713 19.3613 31.5258 20.6682 31.5333 22C31.5333 23.6359 31.0014 25.2274 30.0178 26.5344L31.7778 28.27C33.2071 26.4934 33.9837 24.2802 33.9778 22C33.9698 20.2409 33.5035 18.5143 32.6247 16.9904C31.746 15.4665 30.4852 14.198 28.9667 13.31C28.8275 13.2216 28.672 13.1622 28.5093 13.1354C28.3467 13.1087 28.1803 13.1151 28.0202 13.1543C27.8601 13.1935 27.7096 13.2647 27.5777 13.3636C27.4458 13.4625 27.3353 13.5871 27.2528 13.7298C27.1703 13.8725 27.1175 14.0304 27.0977 14.1941C27.0778 14.3577 27.0912 14.5237 27.1371 14.682C27.1831 14.8403 27.2605 14.9877 27.3649 15.1153C27.4693 15.2429 27.5984 15.348 27.7444 15.4244H27.7322Z" fill="black"/>
<path d="M22 7.33333V18.5167L24.4445 20.9611V7.33333C24.4449 6.84884 24.3013 6.37517 24.0319 5.97245C23.7626 5.56973 23.3797 5.25613 22.9317 5.07146C22.4838 4.8868 21.9911 4.8394 21.5162 4.93528C21.0413 5.03117 20.6056 5.26601 20.2645 5.61L14.6667 11.2078L16.39 12.9311L22 7.33333Z" fill="black"/>
</svg>
