<svg width="46" height="46" viewBox="0 0 46 46" fill="none" xmlns="http://www.w3.org/2000/svg">
<rect width="46" height="46" fill="#FBFBFB"/>
<path d="M4.61279 8.19057L11.7428 15.3333H5.11113C4.43335 15.3333 3.78334 15.6026 3.30408 16.0819C2.82482 16.5611 2.55557 17.2111 2.55557 17.8889V28.1111C2.55557 28.7889 2.82482 29.4389 3.30408 29.9182C3.78334 30.3974 4.43335 30.6667 5.11113 30.6667H11.6789L21.1472 40.2117C21.3958 40.4417 21.6876 40.62 22.0057 40.7363C22.3237 40.8525 22.6617 40.9044 23 40.8889C23.3331 40.8889 23.663 40.8238 23.9711 40.6972C24.4398 40.5047 24.8407 40.1771 25.1228 39.7562C25.405 39.3353 25.5556 38.8401 25.5556 38.3333V29.095L33.0817 36.6211C32.7622 36.8128 32.4556 36.9917 32.1234 37.1578C31.82 37.3103 31.5897 37.577 31.4831 37.8993C31.3765 38.2216 31.4022 38.5731 31.5547 38.8764C31.7072 39.1797 31.974 39.41 32.2963 39.5166C32.6186 39.6233 32.9701 39.5975 33.2734 39.445C33.8477 39.1551 34.4064 38.8352 34.9472 38.4867L37.8606 41.4L39.6111 39.6111L6.38891 6.3889L4.61279 8.19057ZM23 38.3333L13.1228 28.405C12.8696 28.1936 12.5446 28.0883 12.2156 28.1111H5.11113V17.8889H12.3178C12.4869 17.8882 12.6541 17.854 12.8098 17.7882C12.9656 17.7224 13.1067 17.6263 13.225 17.5056L13.5572 17.1733L23 26.5906V38.3333Z" fill="black"/>
<path d="M31.8039 8.54834C34.031 9.58855 35.986 11.1319 37.5149 13.0566C39.0437 14.9814 40.1045 17.235 40.6137 19.6397C41.1229 22.0445 41.0666 24.5346 40.4491 26.9139C39.8316 29.2931 38.6699 31.4964 37.0556 33.35L38.87 35.1644C40.7758 33.021 42.1548 30.4622 42.8974 27.6919C43.64 24.9215 43.7255 22.0161 43.1473 19.2068C42.5691 16.3975 41.343 13.7621 39.5667 11.5102C37.7904 9.25825 35.5129 7.45213 32.9156 6.23556C32.7639 6.15698 32.5981 6.1096 32.4278 6.09623C32.2575 6.08285 32.0863 6.10374 31.9242 6.15767C31.7622 6.2116 31.6126 6.29747 31.4843 6.41021C31.356 6.52294 31.2516 6.66026 31.1773 6.81403C31.1029 6.9678 31.0602 7.13492 31.0516 7.30549C31.0429 7.47607 31.0686 7.64665 31.127 7.80714C31.1854 7.96763 31.2754 8.11478 31.3917 8.23989C31.5079 8.36501 31.6481 8.46554 31.8039 8.53556V8.54834Z" fill="black"/>
<path d="M28.9928 16.1256C30.1954 16.8273 31.1944 17.8303 31.8913 19.0358C32.5881 20.2413 32.9588 21.6076 32.9667 23C32.9667 24.7102 32.4106 26.3741 31.3822 27.7406L33.2222 29.555C34.7166 27.6977 35.5284 25.3838 35.5222 23C35.5139 21.161 35.0264 19.3559 34.1077 17.7627C33.189 16.1696 31.8709 14.8434 30.2833 13.915C30.1379 13.8226 29.9753 13.7605 29.8052 13.7325C29.6352 13.7045 29.4612 13.7112 29.2938 13.7522C29.1265 13.7932 28.9691 13.8677 28.8312 13.9711C28.6934 14.0745 28.5778 14.2047 28.4916 14.3539C28.4053 14.5031 28.3502 14.6682 28.3294 14.8393C28.3086 15.0103 28.3227 15.1838 28.3707 15.3494C28.4187 15.5149 28.4997 15.6689 28.6088 15.8023C28.7179 15.9357 28.8529 16.0457 29.0056 16.1256H28.9928Z" fill="black"/>
<path d="M23 7.66667V19.3583L25.5556 21.9139V7.66667C25.556 7.16016 25.4059 6.66496 25.1243 6.24393C24.8427 5.8229 24.4424 5.49505 23.9741 5.30199C23.5058 5.10893 22.9907 5.05938 22.4942 5.15962C21.9978 5.25986 21.5423 5.50538 21.1856 5.865L15.3333 11.7172L17.135 13.5189L23 7.66667Z" fill="black"/>
</svg>
