<svg width="54" height="53" viewBox="0 0 54 53" fill="none" xmlns="http://www.w3.org/2000/svg">
<path d="M40.5 6.625C41.0511 6.62507 41.583 6.82365 41.9948 7.18308C42.4067 7.54251 42.6698 8.03778 42.7343 8.57496L42.75 8.83333V44.1667C42.7494 44.7295 42.5298 45.2709 42.1361 45.6802C41.7424 46.0895 41.2044 46.3358 40.6319 46.3687C40.0594 46.4017 39.4957 46.2189 39.0559 45.8577C38.6161 45.4964 38.3335 44.984 38.2658 44.425L38.25 44.1667V8.83333C38.25 8.24765 38.4871 7.68595 38.909 7.27181C39.331 6.85766 39.9033 6.625 40.5 6.625ZM11.9093 7.27204C12.2967 6.89182 12.8122 6.66341 13.359 6.62966C13.9058 6.59592 14.4463 6.75915 14.8793 7.08875L15.0908 7.27204L33.0908 24.9387C33.4782 25.319 33.7109 25.8249 33.7453 26.3616C33.7796 26.8983 33.6133 27.4288 33.2775 27.8537L33.0908 28.0613L15.0908 45.728C14.6859 46.124 14.1425 46.354 13.5711 46.3711C12.9998 46.3882 12.4432 46.1912 12.0144 45.8201C11.5856 45.4491 11.3168 44.9317 11.2626 44.3732C11.2084 43.8147 11.3728 43.2568 11.7225 42.8129L11.9093 42.6054L28.3185 26.5L11.9093 10.3946C11.4874 9.9805 11.2505 9.4189 11.2505 8.83333C11.2505 8.24776 11.4874 7.68616 11.9093 7.27204Z" fill="black"/>
</svg>
