<svg width="72" height="79" viewBox="0 0 72 79" fill="none" xmlns="http://www.w3.org/2000/svg">
<path d="M7.875 0C5.78642 0 3.78338 0.809199 2.30653 2.24958C0.829684 3.68997 0 5.64355 0 7.68056V71.3194C0 75.5591 3.528 79 7.875 79H23.625C25.7136 79 27.7166 78.1908 29.1935 76.7504C30.6703 75.31 31.5 73.3565 31.5 71.3194V7.68056C31.5 5.64355 30.6703 3.68997 29.1935 2.24958C27.7166 0.809199 25.7136 0 23.625 0H7.875Z" fill="black"/>
<path d="M48.375 0C46.2864 0 44.2834 0.809199 42.8065 2.24958C41.3297 3.68997 40.5 5.64355 40.5 7.68056V71.3194C40.5 75.5591 44.028 79 48.375 79H64.125C66.2136 79 68.2166 78.1908 69.6935 76.7504C71.1703 75.31 72 73.3565 72 71.3194V7.68056C72 6.67193 71.7963 5.67318 71.4005 4.74133C71.0048 3.80949 70.4247 2.96279 69.6935 2.24958C68.9622 1.53638 68.0941 0.970632 67.1386 0.584648C66.1832 0.198664 65.1592 0 64.125 0H48.375V0Z" fill="black"/>
</svg>
