<svg width="70" height="79" viewBox="0 0 70 79" fill="none" xmlns="http://www.w3.org/2000/svg">
<path d="M7.65625 0C5.62569 0 3.67829 0.806639 2.24246 2.24246C0.806638 3.67829 0 5.62569 0 7.65625V71.0938C0 75.32 3.43 78.75 7.65625 78.75H22.9688C24.9993 78.75 26.9467 77.9434 28.3825 76.5075C29.8184 75.0717 30.625 73.1243 30.625 71.0938V7.65625C30.625 5.62569 29.8184 3.67829 28.3825 2.24246C26.9467 0.806639 24.9993 0 22.9688 0H7.65625Z" fill="black"/>
<path d="M47.0312 0C45.0007 0 43.0533 0.806639 41.6175 2.24246C40.1816 3.67829 39.375 5.62569 39.375 7.65625V71.0938C39.375 75.32 42.805 78.75 47.0312 78.75H62.3438C64.3743 78.75 66.3217 77.9434 67.7575 76.5075C69.1934 75.0717 70 73.1243 70 71.0938V7.65625C70 6.65082 69.802 5.65523 69.4172 4.72633C69.0324 3.79743 68.4685 2.95341 67.7575 2.24246C67.0466 1.53152 66.2026 0.96756 65.2737 0.582798C64.3448 0.198035 63.3492 0 62.3438 0H47.0312V0Z" fill="black"/>
</svg>
