<svg width="53" height="53" viewBox="0 0 53 53" fill="none" xmlns="http://www.w3.org/2000/svg">
<path d="M13.25 6.625C12.7091 6.62507 12.187 6.82365 11.7828 7.18308C11.3786 7.54251 11.1204 8.03778 11.0571 8.57496L11.0417 8.83333V44.1667C11.0423 44.7295 11.2578 45.2709 11.6442 45.6802C12.0306 46.0895 12.5587 46.3358 13.1206 46.3687C13.6825 46.4017 14.2358 46.2189 14.6674 45.8577C15.099 45.4964 15.3764 44.984 15.4429 44.425L15.4583 44.1667V8.83333C15.4583 8.24765 15.2257 7.68595 14.8115 7.27181C14.3974 6.85766 13.8357 6.625 13.25 6.625ZM41.3113 7.27204C40.931 6.89182 40.4251 6.66341 39.8884 6.62966C39.3517 6.59592 38.8212 6.75915 38.3963 7.08875L38.1887 7.27204L20.522 24.9387C20.1418 25.319 19.9134 25.8249 19.8797 26.3616C19.8459 26.8983 20.0092 27.4288 20.3387 27.8537L20.522 28.0613L38.1887 45.728C38.5861 46.124 39.1194 46.354 39.6802 46.3711C40.241 46.3882 40.7873 46.1912 41.2081 45.8202C41.6289 45.4491 41.8928 44.9317 41.946 44.3732C41.9992 43.8147 41.8378 43.2568 41.4946 42.813L41.3113 42.6054L25.2059 26.5L41.3113 10.3946C41.7253 9.9805 41.9579 9.4189 41.9579 8.83333C41.9579 8.24776 41.7253 7.68617 41.3113 7.27204Z" fill="black"/>
</svg>
